# xmcd
#
# Track frame offsets:
#	150
#	20025
#	37961
#	51216
#	63691
#	78848
#	92708
#	109366
#	123236
#	141910
#	161926
#	175926
#	190797
#	204695
#	223402
#	237501
#	252047
#	266303
#
# Disc length: 3756 seconds
#
# Revision: 2
# Processed by: cddbd v1.5.2PL0 Copyright (c) Steve Scherf et al.
# Submitted via: audiograbber 1.83.01
#
DISCID=0d0eaa12
DTITLE=Various Artist - MRE57
DYEAR=2007
DGENRE=Karaoke
TTITLE0=Johnny Cash - One Piece At A Time
TTITLE1=Johnny Cash - A Boy Named Sue
TTITLE2=Johnny Cash - I walk The Line
TTITLE3=Johnny Cash - Ring Of Fire
TTITLE4=Johnny Cash and June Carter Cash - Jackson
TTITLE5=Johnny Cash - Cocaine Blues
TTITLE6=Don Williams - I Recall A Gypsy Woman
TTITLE7=Charley Pride - Crystal Chandeliers
TTITLE8=Garth Brooks - Friends In Low Places
TTITLE9=Don Williams - I Believe In You
TTITLE10=Dr Hook - When Youo're In Love With A Beautiful Woman
TTITLE11=Dr Hook - A Little Bit More
TTITLE12=Glen Campbell - By The Time I Get To Phoenix
TTITLE13=Lonestar - Amazed
TTITLE14=Charlie Rich - The Most Beautiful Girl
TTITLE15=Charlie Rich - Behind Closed Doors
TTITLE16=Hank Williams - Hey Good Lookin'
TTITLE17=Glen Campbell - Gentle On My Mind
EXTD=
EXTT0=
EXTT1=
EXTT2=
EXTT3=
EXTT4=
EXTT5=
EXTT6=
EXTT7=
EXTT8=
EXTT9=
EXTT10=
EXTT11=
EXTT12=
EXTT13=
EXTT14=
EXTT15=
EXTT16=
EXTT17=
PLAYORDER=
